<?xml version="1.0" encoding="utf-8"?>
<!-- Generator: Adobe Illustrator 21.1.0, SVG Export Plug-In . SVG Version: 6.00 Build 0)  -->
<svg version="1.1" id="Layer_1" xmlns="http://www.w3.org/2000/svg" xmlns:xlink="http://www.w3.org/1999/xlink" x="0px" y="0px"
	 viewBox="0 0 60 60" style="enable-background:new 0 0 60 60;" xml:space="preserve">
<style type="text/css">
	.st0{fill:#39B54A;}
	.st1{fill:#FFFFFF;}
</style>
<rect class="st0" width="60" height="60"/>
<g>
	<path class="st1" d="M21.3,37.7c4.4,3.2,9.3,6.1,7.5,13.2C22.3,46.7,20.1,42.7,21.3,37.7z"/>
	<path class="st1" d="M22.5,29.7c5.5,2.9,6.9,4.8,6.8,8.9c0,1.7-0.3,2.3-2,1.2C23.5,37.6,21.9,34.3,22.5,29.7z"/>
	<path class="st1" d="M23.2,21.8c5.4,2.8,6.4,4.3,5.7,9.3C24.4,29.6,22.8,26.8,23.2,21.8z"/>
	<path class="st1" d="M29,23c-4.4-2.1-5.6-4.3-5-8.6C27.3,16.3,30,18.4,29,23z"/>
	<path class="st1" d="M30,16.2c-1.6,0-2-1.3-1.9-2.6c0.1-1.6,0.7-3,1.9-4.6c1.1,1.6,1.7,3,1.8,4.5C31.9,14.8,31.5,16.1,30,16.2z"/>
	<path class="st1" d="M30.9,23.2c-0.5-5,0.5-6.5,5.3-8.6C36.5,18.6,34.9,21.4,30.9,23.2z"/>
	<path class="st1" d="M32.9,30.4c-0.5,0.3-1.3,0.8-1.8,0.7c-0.8-0.2-0.4-1.1-0.5-1.7c-0.3-4.2,2.9-5.9,6.3-8
		C37,25.4,36.1,28.4,32.9,30.4z"/>
	<path class="st1" d="M30.9,40.3c-1.4-5.7,2.1-8.4,6.6-10.9C37.7,35.7,35.9,38.6,30.9,40.3z"/>
	<path class="st1" d="M31.1,51c-1-6.6,0.7-9.4,7.8-13.2C39.8,44.1,35.8,47.6,31.1,51z"/>
</g>
</svg>
